<?xml version="1.0" standalone="no"?>
<!DOCTYPE svg PUBLIC "-//W3C//DTD SVG 20010904//EN"
 "http://www.w3.org/TR/2001/REC-SVG-20010904/DTD/svg10.dtd">
<svg version="1.0" xmlns="http://www.w3.org/2000/svg"
 width="512.000000pt" height="512.000000pt" viewBox="0 0 512.000000 512.000000"
 preserveAspectRatio="xMidYMid meet">

<g transform="translate(0.000000,512.000000) scale(0.100000,-0.100000)"
fill="#000000" stroke="none">
<path d="M2410 4786 c-339 -72 -583 -326 -640 -666 -14 -85 -8 -226 13 -307
l14 -53 -392 0 c-359 0 -395 -1 -414 -17 -14 -13 -133 -330 -386 -1033 l-365
-1016 0 -662 0 -663 25 -24 24 -25 2271 0 2271 0 24 25 25 24 0 663 0 662
-365 1016 c-253 703 -372 1020 -386 1033 -19 16 -55 17 -414 17 l-392 0 15 53
c21 76 22 295 0 372 -29 106 -58 172 -107 247 -113 173 -274 288 -481 345 -78
21 -260 26 -340 9z m285 -161 c213 -44 409 -224 476 -435 29 -91 35 -226 15
-320 -48 -227 -216 -410 -445 -484 l-66 -21 -55 -107 c-30 -60 -57 -108 -60
-108 -3 0 -29 47 -58 104 -51 101 -54 105 -100 121 -131 47 -216 98 -292 174
-254 255 -253 648 0 901 156 156 369 220 585 175z m-800 -1067 c93 -141 235
-254 386 -307 l53 -19 85 -168 c93 -183 108 -199 169 -178 22 7 42 38 113 178
l85 168 53 19 c150 53 293 166 386 307 l28 42 373 0 374 0 0 -560 0 -560
-1440 0 -1440 0 0 560 0 560 374 0 373 0 28 -42z m-1052 -1470 l-118 -328
-142 0 c-79 0 -143 3 -143 7 0 4 116 330 258 723 l257 716 3 -396 2 -395 -117
-327z m3584 393 c139 -387 253 -707 253 -712 0 -5 -64 -9 -142 -9 l-143 0
-118 328 -117 327 1 400 c0 220 3 393 6 385 4 -8 120 -332 260 -719z m-305
-436 c54 -148 98 -273 98 -277 0 -5 -242 -8 -538 -8 -504 0 -539 -1 -572 -19
-50 -26 -75 -68 -100 -171 -35 -140 1 -130 -455 -130 l-382 0 -20 23 c-12 12
-31 59 -43 107 -27 107 -52 147 -104 171 -38 17 -76 19 -573 19 -293 0 -533 3
-533 8 0 4 43 130 97 280 l98 272 1465 -2 1465 -3 97 -270z m-2162 -536 c26
-106 62 -161 130 -199 l45 -25 425 0 425 0 45 25 c68 38 104 93 130 199 l22
91 769 0 769 0 0 -560 0 -560 -2160 0 -2160 0 0 560 0 560 769 0 769 0 22 -91z"/>
<path d="M2222 4337 c-14 -14 -22 -36 -22 -57 0 -29 15 -48 122 -157 l122
-123 -122 -123 c-109 -111 -122 -127 -122 -159 0 -45 34 -78 80 -78 29 0 48
15 157 122 l123 122 123 -122 c111 -109 127 -122 159 -122 45 0 78 34 78 80 0
29 -15 48 -122 157 l-122 123 122 123 c109 111 122 127 122 159 0 45 -34 78
-80 78 -29 0 -48 -15 -157 -122 l-123 -122 -123 122 c-111 109 -127 122 -159
122 -23 0 -42 -8 -56 -23z"/>
</g>
</svg>
